<svg width="40" height="15" viewBox="0 0 40 15" fill="none" xmlns="http://www.w3.org/2000/svg">
<path d="M38.7075 1.83347H38.9474C39.2648 1.83347 39.5227 1.57548 39.5227 1.25817V1.19883C39.5227 0.881515 39.2648 0.623535 38.9474 0.623535H23.8916C23.5743 0.623535 23.3163 0.881515 23.3163 1.19883V1.25817C23.3163 1.28912 23.3215 1.32008 23.3267 1.34846H6.85972C6.79265 1.37684 6.63786 1.36652 6.55015 1.3691C5.98775 1.37942 5.51306 1.45423 4.96872 1.53679C4.51467 1.6503 4.37278 1.68126 4.03741 1.8928C3.66333 2.09145 0.263141 4.39264 0.041277 6.8899C0.0335375 6.99051 0.041277 7.83153 0 8.05855L0.0206385 10.2746L1.099 10.2953C1.34924 10.2953 1.55305 10.4991 1.55305 10.7493V10.8086C1.55305 11.0589 1.34924 11.2627 1.099 11.2627L0.0799742 11.242C0.479845 12.3694 1.25637 13.1975 2.5179 13.1975H5.01258C4.91196 12.9163 4.85521 12.6119 4.85521 12.2946C4.85521 11.4949 5.2009 10.7803 5.74524 10.2953H6.36698C5.59046 10.6771 5.05643 11.4742 5.05643 12.3952C5.05643 13.6903 6.10642 14.7377 7.3989 14.7377C8.69139 14.7377 9.74137 13.6877 9.74137 12.3952C9.74137 11.4716 9.20735 10.6771 8.43083 10.2953H9.09384C9.63818 10.7803 9.98388 11.4949 9.98388 12.2946C9.98388 12.6119 9.92712 12.9138 9.82651 13.1975H25.326C25.2254 12.9163 25.1687 12.6119 25.1687 12.2946C25.1687 11.4949 25.5144 10.7803 26.0587 10.2953H26.6804C25.9039 10.6771 25.3699 11.4742 25.3699 12.3952C25.3699 13.6903 26.4199 14.7377 27.7124 14.7377C29.0048 14.7377 30.0548 13.6877 30.0548 12.3952C30.0548 11.4716 29.5208 10.6771 28.7443 10.2953H29.4073C29.9516 10.7803 30.2973 11.4949 30.2973 12.2946C30.2973 12.6119 30.2406 12.9138 30.14 13.1975H31.3705C31.2699 12.9163 31.2132 12.6119 31.2132 12.2946C31.2132 11.4949 31.5589 10.7803 32.1032 10.2953H32.7249C31.9484 10.6771 31.4144 11.4742 31.4144 12.3952C31.4144 13.6903 32.4644 14.7377 33.7569 14.7377C35.0493 14.7377 36.0993 13.6877 36.0993 12.3952C36.0993 11.4716 35.5653 10.6771 34.7888 10.2953H35.4518C35.9961 10.7803 36.3418 11.4949 36.3418 12.2946C36.3418 12.6119 36.2851 12.9138 36.1845 13.1975H37.0977C38.6998 13.1975 40 11.8973 40 10.2953V4.24817C40 3.23947 39.484 2.34943 38.6998 1.83089L38.7075 1.83347ZM7.38858 13.6851C6.6714 13.6851 6.08836 13.1021 6.08836 12.3849C6.08836 11.6677 6.6714 11.0847 7.38858 11.0847C8.10577 11.0847 8.68881 11.6677 8.68881 12.3849C8.68881 13.1021 8.10577 13.6851 7.38858 13.6851ZM1.24863 5.58451C1.3286 5.41941 1.6227 5.0505 1.90132 4.76414L3.52144 3.04082C3.8207 2.77768 4.39342 2.56097 4.79071 2.56097H7.84005V6.18819H1.68462C1.28475 6.18819 1.16866 5.74962 1.24863 5.58451ZM2.76298 9.60128C2.76298 9.88507 2.43534 10.0579 2.03805 10.0579H0.82554C0.425669 10.0579 0.100613 9.88507 0.100613 9.60128V7.18916C0.100613 6.90538 0.428249 6.6732 0.82554 6.6732H2.03547C2.43534 6.6732 2.7604 6.90538 2.7604 7.18916V9.60128H2.76298ZM3.2454 9.5729V6.67061L5.99549 6.70157L6.02644 8.18239L3.2454 9.5729ZM13.4021 6.18819H8.32248V2.56097H13.4021V6.18819ZM18.9642 6.18819H13.8846V2.56097H18.9642V6.18819ZM24.7688 6.18819H19.4492V2.56097H24.7688V6.18819ZM27.702 13.6851C26.9848 13.6851 26.4018 13.1021 26.4018 12.3849C26.4018 11.6677 26.9848 11.0847 27.702 11.0847C28.4192 11.0847 29.0023 11.6677 29.0023 12.3849C29.0023 13.1021 28.4192 13.6851 27.702 13.6851ZM33.7491 13.6851C33.0319 13.6851 32.4489 13.1021 32.4489 12.3849C32.4489 11.6677 33.0319 11.0847 33.7491 11.0847C34.4663 11.0847 35.0493 11.6677 35.0493 12.3849C35.0493 13.1021 34.4663 13.6851 33.7491 13.6851ZM30.5759 6.18819H25.2564V2.56097H30.5759V6.18819ZM36.3805 6.18819H31.0609V2.56097H36.3805V6.18819ZM36.8629 6.18819V2.56097H38.5553C38.9552 2.56097 39.2802 2.88861 39.2802 3.2859V5.46326C39.2802 5.86313 38.9526 6.18819 38.5553 6.18819H36.8629ZM39.7652 10.6616C39.7652 10.9944 39.4944 11.2653 39.1616 11.2653C38.8288 11.2653 38.5579 10.9944 38.5579 10.6616V8.48422C38.5579 8.15143 38.8288 7.88055 39.1616 7.88055C39.4944 7.88055 39.7652 8.15143 39.7652 8.48422V10.6616Z" fill="#007B9D"/>
<path d="M7.3858 11.2189C6.74343 11.2189 6.21973 11.7426 6.21973 12.3849C6.21973 13.0273 6.74343 13.551 7.3858 13.551C8.02818 13.551 8.55188 13.0273 8.55188 12.3849C8.55188 11.7426 8.02818 11.2189 7.3858 11.2189ZM7.3858 13.3085C6.87758 13.3085 6.46223 12.8932 6.46223 12.3849C6.46223 11.8767 6.87758 11.4614 7.3858 11.4614C7.89403 11.4614 8.30937 11.8767 8.30937 12.3849C8.30937 12.8932 7.89403 13.3085 7.3858 13.3085Z" fill="#007B9D"/>
<path d="M27.7022 11.2189C27.0598 11.2189 26.5361 11.7426 26.5361 12.3849C26.5361 13.0273 27.0598 13.551 27.7022 13.551C28.3446 13.551 28.8683 13.0273 28.8683 12.3849C28.8683 11.7426 28.3446 11.2189 27.7022 11.2189ZM27.7022 13.3085C27.194 13.3085 26.7786 12.8932 26.7786 12.3849C26.7786 11.8767 27.194 11.4614 27.7022 11.4614C28.2104 11.4614 28.6258 11.8767 28.6258 12.3849C28.6258 12.8932 28.2104 13.3085 27.7022 13.3085Z" fill="#007B9D"/>
<path d="M33.7491 11.2189C33.1067 11.2189 32.583 11.7426 32.583 12.3849C32.583 13.0273 33.1067 13.551 33.7491 13.551C34.3915 13.551 34.9152 13.0273 34.9152 12.3849C34.9152 11.7426 34.3915 11.2189 33.7491 11.2189ZM33.7491 13.3085C33.2409 13.3085 32.8255 12.8932 32.8255 12.3849C32.8255 11.8767 33.2409 11.4614 33.7491 11.4614C34.2573 11.4614 34.6727 11.8767 34.6727 12.3849C34.6727 12.8932 34.2573 13.3085 33.7491 13.3085Z" fill="#007B9D"/>
</svg>
