<svg width="24" height="24" viewBox="0 0 24 24" fill="none" xmlns="http://www.w3.org/2000/svg">
<g id="24 / time / calendar-dates">
<path id="icon" fill-rule="evenodd" clip-rule="evenodd" d="M8.11397 5.91561H6.21042V4.95728H4.30687V7.83228H19.5353V4.95728H17.6317V5.91561H15.7282V4.95728H8.11397V5.91561ZM19.5353 9.74894H4.30687V19.3323H19.5353V9.74894ZM15.7282 3.04061H8.11397V2.08228H6.21042V3.04061H4.30687C3.25557 3.04061 2.40332 3.89873 2.40332 4.95728V19.3323C2.40332 20.3908 3.25557 21.2489 4.30687 21.2489H19.5353C20.5866 21.2489 21.4388 20.3908 21.4388 19.3323V4.95728C21.4388 3.89873 20.5866 3.04061 19.5353 3.04061H17.6317V2.08228H15.7282V3.04061ZM7.1622 13.5823V11.6656H9.06575V13.5823H7.1622ZM10.9693 13.5823H12.8728V11.6656H10.9693V13.5823ZM14.7764 13.5823V11.6656H16.68V13.5823H14.7764ZM7.1622 15.4989V17.4156H9.06575V15.4989H7.1622ZM12.8728 17.4156H10.9693V15.4989H12.8728V17.4156Z" fill="#007B9D"/>
</g>
</svg>
