<svg width="15" height="15" viewBox="0 0 15 15" fill="none" xmlns="http://www.w3.org/2000/svg">
<path d="M5.1665 3.85416C4.92734 3.85416 4.729 3.65582 4.729 3.41666V1.66666C4.729 1.42749 4.92734 1.22916 5.1665 1.22916C5.40567 1.22916 5.604 1.42749 5.604 1.66666V3.41666C5.604 3.65582 5.40567 3.85416 5.1665 3.85416Z" fill="#474747"/>
<path d="M9.8335 3.85416C9.59433 3.85416 9.396 3.65582 9.396 3.41666V1.66666C9.396 1.42749 9.59433 1.22916 9.8335 1.22916C10.0727 1.22916 10.271 1.42749 10.271 1.66666V3.41666C10.271 3.65582 10.0727 3.85416 9.8335 3.85416Z" fill="#474747"/>
<path d="M11.1167 13.4208C9.845 13.4208 8.8125 12.3883 8.8125 11.1167C8.8125 9.84501 9.845 8.8125 11.1167 8.8125C12.3883 8.8125 13.4208 9.84501 13.4208 11.1167C13.4208 12.3883 12.3883 13.4208 11.1167 13.4208ZM11.1167 9.6875C10.3292 9.6875 9.6875 10.3292 9.6875 11.1167C9.6875 11.9042 10.3292 12.5458 11.1167 12.5458C11.9042 12.5458 12.5458 11.9042 12.5458 11.1167C12.5458 10.3292 11.9042 9.6875 11.1167 9.6875Z" fill="#474747"/>
<path d="M13.3333 13.7708C13.2225 13.7708 13.1117 13.73 13.0242 13.6425L12.4408 13.0592C12.2717 12.89 12.2717 12.61 12.4408 12.4408C12.61 12.2717 12.89 12.2717 13.0592 12.4408L13.6425 13.0242C13.8117 13.1933 13.8117 13.4733 13.6425 13.6425C13.555 13.73 13.4442 13.7708 13.3333 13.7708Z" fill="#474747"/>
<path d="M5.45833 8.95832C5.3825 8.95832 5.30666 8.94083 5.23666 8.91166C5.16083 8.88249 5.09666 8.84165 5.04416 8.78915C5.02083 8.75998 4.99167 8.73082 4.97417 8.70165C4.95083 8.66665 4.93333 8.63166 4.92167 8.59666C4.90417 8.56166 4.8925 8.52666 4.88667 8.49166C4.88084 8.45083 4.875 8.40999 4.875 8.37499C4.875 8.22332 4.93916 8.07166 5.04416 7.96083C5.09666 7.90833 5.16083 7.86748 5.23666 7.83831C5.44666 7.74498 5.70917 7.79749 5.8725 7.96083C5.9775 8.07166 6.04167 8.22332 6.04167 8.37499C6.04167 8.40999 6.03583 8.45083 6.03 8.49166C6.02416 8.52666 6.0125 8.56166 5.995 8.59666C5.98333 8.63166 5.96583 8.66665 5.9425 8.70165C5.91917 8.73082 5.89584 8.75998 5.8725 8.78915C5.76167 8.89415 5.61 8.95832 5.45833 8.95832Z" fill="#474747"/>
<path d="M7.49984 8.95832C7.34817 8.95832 7.1965 8.89415 7.08567 8.78915C6.98067 8.67832 6.9165 8.53249 6.9165 8.37499C6.9165 8.29915 6.934 8.22332 6.96317 8.15332C6.99234 8.08332 7.03317 8.01916 7.08567 7.96083C7.3015 7.74499 7.69234 7.74499 7.91401 7.96083C8.01901 8.07166 8.08317 8.22332 8.08317 8.37499C8.08317 8.40999 8.07733 8.45083 8.0715 8.49166C8.06567 8.52666 8.054 8.56166 8.0365 8.59666C8.02484 8.63166 8.00734 8.66665 7.984 8.70165C7.96067 8.73082 7.93734 8.75998 7.91401 8.78915C7.80317 8.89415 7.6515 8.95832 7.49984 8.95832Z" fill="#474747"/>
<path d="M5.45833 11C5.30667 11 5.155 10.9358 5.04416 10.8308C4.93916 10.72 4.875 10.5683 4.875 10.4167C4.875 10.3408 4.8925 10.265 4.92167 10.195C4.95083 10.1192 4.99166 10.055 5.04416 10.0025C5.26 9.78668 5.65667 9.78668 5.8725 10.0025C5.9775 10.1133 6.04167 10.265 6.04167 10.4167C6.04167 10.5683 5.9775 10.72 5.8725 10.8308C5.76167 10.9358 5.61 11 5.45833 11Z" fill="#474747"/>
<path d="M12.4582 6.23999H2.5415C2.30234 6.23999 2.104 6.04166 2.104 5.80249C2.104 5.56332 2.30234 5.36499 2.5415 5.36499H12.4582C12.6973 5.36499 12.8957 5.56332 12.8957 5.80249C12.8957 6.04166 12.6973 6.23999 12.4582 6.23999Z" fill="#474747"/>
<path d="M8.29916 13.7708H5.16667C3.0375 13.7708 1.8125 12.5458 1.8125 10.4167V5.45832C1.8125 3.32916 3.0375 2.10416 5.16667 2.10416H9.83333C11.9625 2.10416 13.1875 3.32916 13.1875 5.45832V8.08332C13.1875 8.32249 12.9892 8.52082 12.75 8.52082C12.5108 8.52082 12.3125 8.32249 12.3125 8.08332V5.45832C12.3125 3.78999 11.5017 2.97916 9.83333 2.97916H5.16667C3.49833 2.97916 2.6875 3.78999 2.6875 5.45832V10.4167C2.6875 12.085 3.49833 12.8958 5.16667 12.8958H8.29916C8.53833 12.8958 8.73666 13.0942 8.73666 13.3333C8.73666 13.5725 8.53833 13.7708 8.29916 13.7708Z" fill="#474747"/>
</svg>
