<svg width="25" height="25" viewBox="0 0 25 25" fill="none" xmlns="http://www.w3.org/2000/svg">
<g id="Bold / Messages, Conversation / Letter">
<path id="Vector" fill-rule="evenodd" clip-rule="evenodd" d="M3.97138 5.25425C2.7998 6.42582 2.7998 8.31144 2.7998 12.0827C2.7998 15.8539 2.7998 17.7395 3.97138 18.9111C5.14295 20.0827 7.02857 20.0827 10.7998 20.0827H14.7998C18.571 20.0827 20.4567 20.0827 21.6282 18.9111C22.7998 17.7395 22.7998 15.8539 22.7998 12.0827C22.7998 8.31144 22.7998 6.42582 21.6282 5.25425C20.4567 4.08267 18.571 4.08267 14.7998 4.08267H10.7998C7.02857 4.08267 5.14295 4.08267 3.97138 5.25425ZM19.376 7.60253C19.6411 7.92074 19.5981 8.39366 19.2799 8.65884L17.0835 10.4892C16.1971 11.2279 15.4787 11.8266 14.8446 12.2344C14.1841 12.6592 13.5409 12.9275 12.7998 12.9275C12.0587 12.9275 11.4155 12.6592 10.755 12.2344C10.1209 11.8266 9.40252 11.2279 8.51616 10.4893L6.31967 8.65884C6.00146 8.39366 5.95847 7.92074 6.22364 7.60253C6.48881 7.28433 6.96173 7.24133 7.27994 7.50651L9.43884 9.30559C10.3718 10.0831 11.0195 10.6211 11.5664 10.9728C12.0957 11.3133 12.4547 11.4275 12.7998 11.4275C13.1449 11.4275 13.5039 11.3133 14.0332 10.9728C14.5801 10.6211 15.2278 10.0831 16.1608 9.30558L18.3197 7.50651C18.6379 7.24133 19.1108 7.28433 19.376 7.60253Z" fill="#007B9D"/>
</g>
</svg>
