<svg width="24" height="25" viewBox="0 0 24 25" fill="none" xmlns="http://www.w3.org/2000/svg">
<g id="24 / call / call-phone">
<path id="icon" fill-rule="evenodd" clip-rule="evenodd" d="M10.8565 8.65306C11.3746 7.95004 11.5604 7.20912 10.9744 6.55511C9.65949 4.70246 8.77515 3.55678 8.22044 3.00505C7.16589 1.95614 5.43112 2.09802 4.51779 3.00415C4.02723 3.49085 3.86116 3.65798 3.35747 4.17311C0.551816 6.99961 2.26285 12.9747 6.81139 17.5591C11.3589 22.1425 17.2926 23.8662 20.1041 21.0337C20.5689 20.5826 20.9624 20.1861 21.2728 19.8558C22.1678 18.9033 22.3037 17.2336 21.2669 16.1489C20.7354 15.5928 19.6503 14.7453 17.7329 13.3643C17.1457 12.8356 16.4494 12.9502 15.811 13.3719C15.504 13.5747 15.2805 13.7799 14.8585 14.2052L14.0923 14.9772C13.9914 15.0788 12.621 14.3878 11.2907 13.0471C9.95972 11.7056 9.2739 10.3257 9.37435 10.2245L10.1411 9.45205C10.275 9.31712 10.339 9.25179 10.4211 9.16493C10.5921 8.98397 10.7337 8.81974 10.8565 8.65306ZM15.5057 16.4011L16.2721 15.629C16.5044 15.395 16.6549 15.251 16.7773 15.1518C18.457 16.3663 19.4297 17.13 19.8271 17.5457C20.0656 17.7953 20.0286 18.2507 19.8212 18.4714C19.5342 18.7768 19.1613 19.1525 18.7037 19.5968C16.8857 21.4282 12.0959 20.0367 8.22513 16.1355C4.35315 12.233 2.97188 7.40944 4.7762 5.5917C5.27786 5.07868 5.4368 4.91872 5.92035 4.43898C6.10166 4.2591 6.59552 4.21871 6.81608 4.43808C7.24314 4.86286 8.03534 5.8842 9.20071 7.51873C9.14038 7.59414 9.06503 7.67937 8.97333 7.7764C8.90603 7.84763 8.84996 7.90485 8.72738 8.0284L7.96136 8.80012C6.65821 10.1121 7.76802 12.3451 9.87697 14.4707C11.9845 16.5948 14.203 17.7135 15.5057 16.4011Z" fill="#007B9D"/>
</g>
</svg>
