<svg width="25" height="25" viewBox="0 0 25 25" fill="none" xmlns="http://www.w3.org/2000/svg">
<g id="Bold / Call / Phone Rounded">
<path id="Vector" d="M10.8374 5.39884L11.4864 6.56177C12.0721 7.61125 11.837 8.98799 10.9145 9.91047C10.9145 9.91047 10.9145 9.91047 10.9145 9.91048C10.9144 9.91059 9.79568 11.0295 11.8243 13.0582C13.8523 15.0861 14.9712 13.9688 14.972 13.968C14.972 13.9679 14.972 13.968 14.972 13.9679C15.8945 13.0455 17.2712 12.8104 18.3207 13.3961L19.4836 14.0451C21.0684 14.9295 21.2555 17.1519 19.8626 18.5449C19.0256 19.3819 18.0002 20.0331 16.8667 20.0761C14.9586 20.1485 11.7181 19.6655 8.46751 16.415C5.21693 13.1644 4.73402 9.9239 4.80636 8.01576C4.84933 6.88227 5.50061 5.85691 6.33761 5.0199C7.73056 3.62695 9.95298 3.81411 10.8374 5.39884Z" fill="#007B9D"/>
</g>
</svg>
