<svg width="25" height="25" viewBox="0 0 25 25" fill="none" xmlns="http://www.w3.org/2000/svg">
<g id="Bold / Map &#38; Location / Map Point">
<path id="Vector" fill-rule="evenodd" clip-rule="evenodd" d="M12.3999 2.08267C7.98162 2.08267 4.3999 6.08526 4.3999 10.5827C4.3999 15.0448 6.95323 19.8951 10.937 21.7571C11.8656 22.1912 12.9342 22.1912 13.8628 21.7571C17.8466 19.8951 20.3999 15.0448 20.3999 10.5827C20.3999 6.08526 16.8182 2.08267 12.3999 2.08267ZM12.3999 12.0827C13.5045 12.0827 14.3999 11.1872 14.3999 10.0827C14.3999 8.9781 13.5045 8.08267 12.3999 8.08267C11.2953 8.08267 10.3999 8.9781 10.3999 10.0827C10.3999 11.1872 11.2953 12.0827 12.3999 12.0827Z" fill="#007B9D"/>
</g>
</svg>
