<svg width="23" height="23" viewBox="0 0 23 23" fill="none" xmlns="http://www.w3.org/2000/svg">
<path d="M12.0986 12.6177H6.8623V11.0181H12.0508C12.4746 11.0181 12.8118 10.952 13.0625 10.8198C13.3177 10.6877 13.5023 10.5054 13.6162 10.2729C13.7301 10.036 13.7871 9.76709 13.7871 9.46631C13.7871 9.17008 13.7256 8.89893 13.6025 8.65283C13.484 8.40218 13.2995 8.20166 13.0488 8.05127C12.8027 7.89632 12.4883 7.81885 12.1055 7.81885H10.2939V16.1655H8.24316V6.2124H12.0986C12.8825 6.2124 13.5524 6.3514 14.1084 6.62939C14.6689 6.90739 15.0996 7.2902 15.4004 7.77783C15.7012 8.26546 15.8516 8.82373 15.8516 9.45264C15.8516 10.1134 15.6966 10.6808 15.3867 11.1548C15.0814 11.6287 14.6484 11.991 14.0879 12.2417C13.5319 12.4924 12.8688 12.6177 12.0986 12.6177ZM12.4746 13.1782V14.7778H6.8623V13.1782H12.4746Z" fill="#007B9D"/>
<rect x="1.5" y="1.16553" width="20" height="20" rx="10" stroke="#007B9D" stroke-width="2"/>
</svg>
