<svg width="24" height="25" viewBox="0 0 24 25" fill="none" xmlns="http://www.w3.org/2000/svg">
<g id="Telegram">
<rect id="Rectangle" y="0.0826721" width="24" height="24" rx="12" fill="#419FD9"/>
<path id="Exclude" fill-rule="evenodd" clip-rule="evenodd" d="M14.6675 18.0248C15.5063 18.3918 15.8208 17.6229 15.8208 17.6229L18.04 6.47447C18.0226 5.72309 17.0091 6.17741 17.0091 6.17741L4.58501 11.0527C4.58501 11.0527 3.99089 11.2624 4.04331 11.6293C4.09574 11.9963 4.56754 12.171 4.56754 12.171L7.69539 13.2195C7.69539 13.2195 8.63899 16.3124 8.83121 16.9065C9.00595 17.4831 9.16322 17.5006 9.16322 17.5006C9.33796 17.5705 9.49522 17.4482 9.49522 17.4482L11.5222 15.6134L14.6675 18.0248ZM15.2092 8.44901C15.2092 8.44901 15.646 8.1869 15.6286 8.44901C15.6286 8.44901 15.6985 8.48396 15.4713 8.7286C15.2616 8.93829 10.3165 13.3767 9.65244 13.9708C9.60002 14.0058 9.56507 14.0582 9.56507 14.1281L9.37286 15.7706C9.33791 15.9454 9.11075 15.9629 9.05832 15.8056L8.23704 13.1146C8.2021 13.0097 8.23704 12.8874 8.34189 12.8175L15.2092 8.44901Z" fill="white"/>
</g>
</svg>
