<svg width="24" height="25" viewBox="0 0 24 25" fill="none" xmlns="http://www.w3.org/2000/svg">
<g id="WhatsApp">
<rect id="Rectangle" y="0.0826721" width="24" height="24" rx="12" fill="#0DC143"/>
<path id="Vector" d="M17.3752 6.68842C16.0887 5.36409 14.3104 4.64517 12.4941 4.64517C8.63468 4.64517 5.53198 7.78571 5.56982 11.6073C5.56982 12.8181 5.91036 13.9911 6.47792 15.0506L5.49414 18.6452L9.16441 17.6992C10.186 18.2668 11.3212 18.5317 12.4563 18.5317C16.2779 18.5317 19.3806 15.3911 19.3806 11.5695C19.3806 9.71544 18.6617 7.9749 17.3752 6.68842ZM12.4941 17.3587C11.4725 17.3587 10.4509 17.0938 9.58063 16.5641L9.3536 16.4506L7.15901 17.0181L7.72657 14.8614L7.57522 14.6344C5.91036 11.9479 6.70495 8.39112 9.42928 6.72625C12.1536 5.06139 15.6725 5.85598 17.3374 8.58031C19.0022 11.3046 18.2077 14.8236 15.4833 16.4884C14.6131 17.056 13.5536 17.3587 12.4941 17.3587ZM15.8239 13.1587L15.4077 12.9695C15.4077 12.9695 14.8022 12.7046 14.4239 12.5154C14.386 12.5154 14.3482 12.4776 14.3104 12.4776C14.1968 12.4776 14.1212 12.5154 14.0455 12.5533C14.0455 12.5533 14.0077 12.5911 13.4779 13.1965C13.4401 13.2722 13.3644 13.31 13.2887 13.31H13.2509C13.2131 13.31 13.1374 13.2722 13.0995 13.2344L12.9104 13.1587C12.4941 12.9695 12.1158 12.7425 11.8131 12.4398C11.7374 12.3641 11.6239 12.2884 11.5482 12.2127C11.2833 11.9479 11.0185 11.6452 10.8293 11.3046L10.7914 11.229C10.7536 11.1911 10.7536 11.1533 10.7158 11.0776C10.7158 11.0019 10.7158 10.9263 10.7536 10.8884C10.7536 10.8884 10.905 10.6992 11.0185 10.5857C11.0941 10.51 11.132 10.3965 11.2077 10.3208C11.2833 10.2073 11.3212 10.056 11.2833 9.94247C11.2455 9.75328 10.7914 8.73166 10.6779 8.50463C10.6022 8.39112 10.5266 8.35328 10.4131 8.31544H10.2995C10.2239 8.31544 10.1104 8.31544 9.99684 8.31544C9.92117 8.31544 9.84549 8.35328 9.76982 8.35328L9.73198 8.39112C9.6563 8.42896 9.58063 8.50463 9.50495 8.54247C9.42928 8.61815 9.39144 8.69382 9.31576 8.7695C9.0509 9.11004 8.89955 9.52625 8.89955 9.94247C8.89955 10.2452 8.97522 10.5479 9.08874 10.8127L9.12657 10.9263C9.46711 11.6452 9.92117 12.2884 10.5266 12.856L10.6779 13.0073C10.7914 13.1208 10.905 13.1965 10.9806 13.31C11.7752 13.9911 12.6833 14.483 13.705 14.7479C13.8185 14.7857 13.9698 14.7857 14.0833 14.8236C14.1968 14.8236 14.3482 14.8236 14.4617 14.8236C14.6509 14.8236 14.8779 14.7479 15.0293 14.6722C15.1428 14.5965 15.2185 14.5965 15.2941 14.5208L15.3698 14.4452C15.4455 14.3695 15.5212 14.3317 15.5968 14.256C15.6725 14.1803 15.7482 14.1046 15.786 14.029C15.8617 13.8776 15.8995 13.6884 15.9374 13.4992C15.9374 13.4236 15.9374 13.31 15.9374 13.2344C15.9374 13.2344 15.8995 13.1965 15.8239 13.1587Z" fill="white"/>
</g>
</svg>
