<svg width="23" height="24" viewBox="0 0 23 24" fill="none" xmlns="http://www.w3.org/2000/svg">
<path fill-rule="evenodd" clip-rule="evenodd" d="M11.5 22.7177C5.42487 22.7177 0.5 17.7589 0.5 11.642C0.5 5.52496 5.42487 0.566162 11.5 0.566162C17.5751 0.566162 22.5 5.52496 22.5 11.642C22.5 17.7589 17.5751 22.7177 11.5 22.7177ZM11.5 20.704C16.4706 20.704 20.5 16.6468 20.5 11.642C20.5 6.63714 16.4706 2.57994 11.5 2.57994C6.52944 2.57994 2.5 6.63714 2.5 11.642C2.5 16.6468 6.52944 20.704 11.5 20.704ZM16.5 10.6351H12.5V5.60061H10.5V12.6488H16.5V10.6351Z" fill="#007B9D"/>
</svg>
